<?xml version="1.0" encoding="UTF-8" standalone="no"?>
<svg
   width="880"
   height="880"
   viewBox="0 0 880 880"
   fill="none"
   version="1.1"
   id="svg28"
   sodipodi:docname="Group 324985.svg"
   inkscape:version="1.4.3 (0d15f75042, 2025-12-25)"
   xmlns:inkscape="http://www.inkscape.org/namespaces/inkscape"
   xmlns:sodipodi="http://sodipodi.sourceforge.net/DTD/sodipodi-0.dtd"
   xmlns="http://www.w3.org/2000/svg"
   xmlns:svg="http://www.w3.org/2000/svg">
  <defs
     id="defs28" />
  <sodipodi:namedview
     id="namedview28"
     pagecolor="#ffffff"
     bordercolor="#000000"
     borderopacity="0.25"
     inkscape:showpageshadow="2"
     inkscape:pageopacity="0.0"
     inkscape:pagecheckerboard="0"
     inkscape:deskcolor="#d1d1d1"
     inkscape:zoom="0.76408787"
     inkscape:cx="369.72187"
     inkscape:cy="465.915"
     inkscape:window-width="1920"
     inkscape:window-height="1011"
     inkscape:window-x="0"
     inkscape:window-y="0"
     inkscape:window-maximized="1"
     inkscape:current-layer="svg28" />
  <g
     id="g28"
     transform="translate(16.653122,7.8309532)">
    <path
       d="m 603.466,607.235 v -57.514 l 15.224,-220.47 -27.629,-64.844 -436.993,-56.95 -31.576,34.959 v 387.373 l 39.471,42.29 z"
       fill="#2a2b30"
       id="path1" />
    <path
       d="m 448.962,285.849 -69.919,63.152 24.81,7.894 45.109,-42.853 z"
       fill="#595d7a"
       id="path2" />
    <path
       d="m 372.074,352.974 c 9.472,-7.316 19.358,-4.835 28.23,0.889 10.457,6.747 19.506,18 24.81,23.03 8.414,8.925 13.752,16.564 16.859,23.16 11.36,24.118 -7.107,34.303 -14.17,42.481 -7.197,8.333 -99.608,85.029 -144.914,122.336 -37.904,32.262 -102.818,87.199 -144.448,119.991 -3.047,-1.087 -6.119,-2.329 -9.181,-3.747 C 110.073,672.231 98.3748,653.552 94.2715,635.825 121.227,604.189 163.656,556.563 212.907,504.11 288.521,423.581 366.292,358.364 372.074,352.974 Z"
       fill="#23263b"
       id="path3" />
    <path
       d="m 499.394,208.77 c 54.827,-37.773 143.566,-19.378 151.069,-17.164 6.001,1.772 7.262,5.807 4.391,7.082 -9.134,4.77 -30.891,26.697 -44.845,76.243 -17.442,61.934 -56.224,88.302 -68.954,90.745 -12.73,2.443 -37.368,8.52 -54.643,-2.779 l -43.329,41.386 c 11.36,24.117 -7.107,34.302 -14.17,42.48 -7.196,8.333 -99.607,85.03 -144.913,122.337 -35.678,30.367 -95.287,80.82 -136.883,113.989 -8.771,-1.587 -18.437,-4.306 -28.021,-8.743 C 104.521,667.598 97.299,655.199 93.8474,641.858 120.712,610.245 163.821,561.8 214.017,508.341 c 75.615,-80.53 153.386,-145.748 159.167,-151.137 9.472,-7.316 19.358,-4.835 28.23,0.889 l 42.625,-40.881 c 0.176,-23.556 11.493,-78.223 55.355,-108.442 z"
       fill="#595d7a"
       id="path4" />
    <path
       d="m 518.754,212.563 c 54.827,-37.773 149.069,-18.337 156.572,-16.122 6.001,1.771 1.76,4.765 -1.112,6.04 -9.134,4.77 -30.892,26.696 -44.845,76.243 -17.442,61.934 -56.224,88.302 -68.953,90.745 -12.73,2.442 -37.368,8.519 -54.644,-2.779 l -43.329,41.386 c 11.36,24.117 -7.106,34.302 -14.169,42.481 -7.196,8.332 -99.607,85.03 -144.914,122.337 -35.088,29.865 -95.944,80.923 -139.18,115.276 -11.638,-0.787 -26.767,-3.53 -41.698,-10.442 C 112.481,673.097 104.514,665.804 98.5968,657.372 128.27,622.895 180.62,568.32 233.377,512.133 c 75.615,-80.53 153.388,-145.748 159.168,-151.137 9.472,-7.315 19.358,-4.835 28.23,0.89 l 42.625,-40.88 c 0.175,-23.556 11.492,-78.224 55.354,-108.443 z"
       fill="#ffffff"
       id="path5" />
    <path
       d="m 137.829,196.756 c 14.802,-5.866 33.869,-3.294 72.003,1.85 l 320.499,43.232 c 29.91,4.035 44.865,6.052 56.123,13.191 9.92,6.29 17.81,15.316 22.718,25.988 5.569,12.111 5.569,27.202 5.569,57.382 v 200.615 c 0,30.358 0,45.537 -5.618,57.694 -4.95,10.71 -12.905,19.753 -22.898,26.027 -11.342,7.121 -26.398,9.054 -56.509,12.921 l -320.499,41.157 c -37.948,4.873 -56.922,7.31 -71.64,1.4 -12.922,-5.189 -23.677,-14.65 -30.47,-26.806 -7.7357,-13.845 -7.7359,-32.976 -7.7359,-71.236 V 295.166 c 0,-38.479 -1e-4,-57.72 7.7929,-71.604 6.842,-12.19 17.67,-21.655 30.665,-26.806 z m 50.739,22.09 c -21.095,-2.725 -31.643,-4.088 -39.825,-0.807 -7.184,2.88 -13.162,8.137 -16.939,14.892 -4.302,7.694 -4.302,18.33 -4.302,39.6 v 329.332 c 0,21.17 0,31.755 4.275,39.431 3.755,6.741 9.7,11.996 16.851,14.893 8.144,3.3 18.649,1.999 39.658,-0.604 L 547.33,611.112 c 16.703,-2.069 25.054,-3.103 31.365,-7.02 5.561,-3.451 10.002,-8.442 12.784,-14.366 3.156,-6.723 3.213,-15.139 3.327,-31.969 l 1.606,-238.268 c 0.114,-16.958 0.172,-25.438 -2.929,-32.236 -2.732,-5.988 -7.152,-11.051 -12.717,-14.565 -6.318,-3.989 -14.728,-5.075 -31.547,-7.248 z"
       fill="#595d7a"
       id="path6" />
    <path
       d="m 128.809,196.726 c 14.801,-5.867 33.869,-3.295 72.004,1.849 l 320.499,43.233 c 29.909,4.034 44.864,6.052 56.123,13.19 9.92,6.29 17.809,15.316 22.716,25.988 5.57,12.112 5.57,27.202 5.57,57.382 v 202.374 c 0,29.788 0,44.682 -5.462,56.694 -4.814,10.585 -12.557,19.572 -22.316,25.896 -11.073,7.176 -25.804,9.376 -55.264,13.777 l -339.854,50.758 c -27.47,0.898 -41.206,1.346 -52.146,-2.58 -16.47,-5.91 -29.601,-18.62 -36.0462,-34.887 -4.2813,-10.807 -4.2812,-24.549 -4.2812,-52.034 v -303.23 c 0,-38.48 -1e-4,-57.72 7.7929,-71.605 6.8415,-12.189 17.6695,-21.654 30.6645,-26.805 z m 50.739,22.09 c -21.095,-2.726 -31.642,-4.088 -39.824,-0.808 -7.184,2.88 -13.164,8.137 -16.941,14.892 -4.301,7.695 -4.302,18.33 -4.302,39.6 v 329.332 c 0,21.17 0.001,31.756 4.277,39.432 3.754,6.74 9.7,11.995 16.85,14.892 8.144,3.3 18.649,1.999 39.659,-0.603 L 538.31,611.081 c 16.703,-2.069 25.055,-3.102 31.366,-7.019 5.561,-3.452 10,-8.442 12.782,-14.367 3.157,-6.723 3.214,-15.138 3.327,-31.968 l 1.608,-238.269 c 0.114,-16.958 0.171,-25.438 -2.93,-32.235 -2.732,-5.989 -7.152,-11.051 -12.718,-14.566 -6.318,-3.989 -14.728,-5.075 -31.547,-7.248 z"
       fill="#595d7a"
       id="path7" />
    <path
       d="m 604.591,563.833 c -2.819,24.246 -9.585,36.651 -29.32,40.034 l -400.342,43.417 c -13.533,0 -41.726,-3.383 -41.726,-38.906"
       stroke="#595d7a"
       stroke-width="19.1713"
       id="path8" />
    <path
       d="m 153.679,196.702 c 14.822,-5.857 33.912,-3.251 72.092,1.959 l 321.625,43.89 c 29.862,4.074 44.793,6.113 56.031,13.255 9.902,6.294 17.775,15.315 22.673,25.978 5.557,12.101 5.558,27.17 5.558,57.308 v 206.021 c 0,30.317 0,45.476 -5.607,57.622 -4.94,10.702 -12.881,19.74 -22.857,26.018 -11.322,7.124 -26.354,9.077 -56.419,12.983 l -321.627,41.783 c -37.991,4.936 -56.987,7.404 -71.724,1.504 -12.939,-5.18 -23.71,-14.642 -30.514,-26.806 -7.749,-13.855 -7.75,-33.01 -7.75,-71.321 V 295.201 c 0,-38.533 0.001,-57.8 7.808,-71.693 6.854,-12.198 17.698,-21.664 30.711,-26.806 z m 50.818,22.485 c -21.119,-2.76 -31.678,-4.14 -39.871,-0.865 -7.193,2.875 -13.182,8.133 -16.965,14.893 -4.309,7.699 -4.309,18.348 -4.309,39.647 v 314.71 c 0,20.864 0,31.297 4.196,38.917 3.685,6.693 9.529,11.941 16.577,14.891 8.025,3.357 18.398,2.242 39.143,0.012 l 359.12,-38.6 c 16.928,-1.82 25.391,-2.73 31.807,-6.603 5.653,-3.412 10.183,-8.402 13.034,-14.357 3.235,-6.76 3.324,-15.273 3.501,-32.297 l 2.382,-228.863 c 0.177,-16.992 0.266,-25.488 -2.819,-32.306 -2.718,-6.006 -7.132,-11.088 -12.699,-14.62 -6.319,-4.009 -14.744,-5.11 -31.594,-7.312 z"
       fill="#ffffff"
       id="path9" />
    <path
       d="m 656.206,192.708 c -7.501,-2.214 -101.745,-21.652 -156.572,16.121 -11.25,8.001 -36.006,30.993 -45.028,58.961 -9.022,27.968 54.034,76.95 86.689,97.945 12.73,-2.443 51.512,-28.81 68.954,-90.744 13.954,-49.547 35.711,-71.474 44.845,-76.244 2.871,-1.275 7.113,-4.268 1.112,-6.039 z"
       fill="#595d7a"
       id="path10" />
    <path
       d="m 456.861,221.559 c -19.848,22.554 -19.923,69.167 -17.48,89.654 5.827,-4.135 17.48,-16.014 17.48,-30.449 0,-18.043 45.109,-62.025 54.131,-72.738 7.217,-8.571 47.364,-16.352 66.536,-19.171 7.706,-1.128 84.579,5.229 65.408,1.123 -91.348,-19.563 -161.265,3.388 -186.075,31.581 z"
       fill="#595d7a"
       id="path11" />
    <path
       d="m 518.501,212.564 c -43.862,30.219 -55.179,84.886 -55.354,108.442 l 42.372,45.685 c 17.275,11.299 41.914,5.221 54.644,2.779 12.729,-2.443 51.511,-28.81 68.953,-90.744 13.954,-49.548 35.711,-71.474 44.845,-76.244 2.871,-1.275 7.113,-4.269 1.112,-6.04 -7.501,-2.214 -101.744,-21.652 -156.572,16.122 z"
       fill="#ffffff"
       id="path12" />
    <path
       d="m 340.707,338.861 c 42.854,-25.937 67.287,7.328 74.43,15.222 l -32.704,3.392 -98.676,80.632 -140.405,158.359 v -64.85 c 70.57,-80.491 167.29,-174.558 197.355,-192.755 z"
       fill="#595d7a"
       id="path13" />
    <path
       d="m 41.9365,0 2.7598,9.76562e-4 V 0.00195312 L 208.979,43.3086 c 10.313,2.7499 14.713,3.9938 29.562,19.6348 14.85,15.6413 42.853,44.3016 54.999,56.6766 L 86.8711,67.9551 10.3125,294.245 0,178.747 V 172.56 L 37.125,5.5 39.1865,2.75 Z"
       fill="#595d7a"
       id="path14" />
    <rect
       x="66.851601"
       y="62.9473"
       width="244.409"
       height="247.92599"
       rx="15.1248"
       transform="rotate(14,66.8516,62.9473)"
       fill="#ffffff"
       id="rect14" />
    <path
       d="M 508.369,567.376 553.99,765.93 v 0 c 13.891,60.458 20.836,90.687 24.14,93.775 5.773,5.397 9.978,5.966 16.976,2.295 4.005,-2.101 21.264,-34.113 55.784,-98.137 24.948,-46.273 63.086,-73.779 115.145,-88.569 v 0 c 49.426,-14.042 74.138,-21.063 77.114,-24.893 4.72,-6.075 4.726,-12.041 0.02,-18.127 -2.967,-3.837 -25.56,-10.311 -70.748,-23.259 L 535.927,541.247 c -10.341,-2.963 -15.512,-4.444 -19.256,-3.57 -5.206,1.216 -9.351,5.146 -10.843,10.28 -1.072,3.693 0.132,8.935 2.541,19.419 z"
       fill="#595d7a"
       id="path15" />
    <path
       d="m 508.369,563.341 45.621,198.554 v 0 c 13.891,60.458 20.836,90.687 24.14,93.775 5.773,5.397 9.978,5.966 16.976,2.295 4.005,-2.101 21.264,-34.113 55.784,-98.137 24.948,-46.273 63.086,-73.779 115.145,-88.569 v 0 c 49.426,-14.042 74.138,-21.063 77.114,-24.893 4.72,-6.075 4.726,-12.041 0.02,-18.127 -2.967,-3.837 -25.56,-10.311 -70.748,-23.259 L 535.927,537.212 c -10.341,-2.963 -15.512,-4.445 -19.256,-3.57 -5.206,1.216 -9.351,5.146 -10.843,10.28 -1.072,3.693 0.132,8.935 2.541,19.419 z"
       fill="#595d7a"
       id="path16" />
    <path
       d="M 508.369,559.306 553.99,757.86 v 0 c 13.891,60.458 20.836,90.687 24.14,93.775 5.773,5.397 9.978,5.966 16.976,2.294 4.005,-2.1 21.264,-34.112 55.784,-98.137 24.948,-46.272 63.086,-73.778 115.145,-88.568 v 0 c 49.426,-14.042 74.138,-21.063 77.114,-24.893 4.72,-6.075 4.726,-12.041 0.02,-18.127 -2.967,-3.837 -25.56,-10.311 -70.748,-23.259 L 535.927,533.177 c -10.341,-2.963 -15.512,-4.445 -19.256,-3.57 -5.206,1.216 -9.351,5.146 -10.843,10.28 -1.072,3.693 0.132,8.935 2.541,19.419 z"
       fill="#595d7a"
       id="path17" />
    <path
       d="m 508.369,555.271 45.621,198.554 v 0 c 13.891,60.458 20.836,90.687 24.14,93.775 5.773,5.397 9.978,5.965 16.976,2.294 4.005,-2.1 21.264,-34.112 55.784,-98.137 24.948,-46.272 63.086,-73.778 115.145,-88.568 v -10e-4 c 49.426,-14.041 74.138,-21.062 77.114,-24.892 4.72,-6.076 4.726,-12.041 0.02,-18.127 -2.967,-3.837 -25.56,-10.311 -70.748,-23.259 L 535.927,529.142 c -10.341,-2.963 -15.512,-4.445 -19.256,-3.57 -5.206,1.216 -9.351,5.146 -10.843,10.28 -1.072,3.693 0.132,8.935 2.541,19.419 z"
       fill="#595d7a"
       id="path18" />
    <path
       d="M 508.369,551.236 553.99,749.79 v 0 c 13.891,60.458 20.836,90.687 24.14,93.775 5.773,5.397 9.978,5.965 16.976,2.294 4.005,-2.1 21.264,-34.112 55.784,-98.137 24.948,-46.272 63.086,-73.779 115.145,-88.568 v -10e-4 c 49.426,-14.041 74.138,-21.062 77.114,-24.892 4.72,-6.076 4.726,-12.041 0.02,-18.127 -2.967,-3.837 -25.56,-10.311 -70.748,-23.26 L 535.927,525.107 c -10.341,-2.963 -15.512,-4.445 -19.256,-3.57 -5.206,1.216 -9.351,5.146 -10.843,10.28 -1.072,3.693 0.132,8.935 2.541,19.419 z"
       fill="#595d7a"
       id="path19" />
    <path
       d="m 508.369,547.201 45.621,198.554 v 0 c 13.891,60.458 20.836,90.687 24.14,93.775 5.773,5.397 9.978,5.965 16.976,2.294 4.005,-2.1 21.264,-34.112 55.784,-98.137 24.948,-46.272 63.086,-73.779 115.145,-88.569 v 0 c 49.426,-14.041 74.138,-21.062 77.114,-24.892 4.72,-6.076 4.726,-12.041 0.02,-18.127 -2.967,-3.837 -25.56,-10.311 -70.748,-23.26 L 535.927,521.072 c -10.341,-2.963 -15.512,-4.445 -19.256,-3.57 -5.206,1.216 -9.351,5.146 -10.843,10.28 -1.072,3.693 0.132,8.935 2.541,19.419 z"
       fill="#595d7a"
       id="path20" />
    <path
       d="M 508.369,543.166 553.99,741.72 v 0 c 13.891,60.458 20.836,90.687 24.14,93.775 5.773,5.397 9.978,5.965 16.976,2.294 4.005,-2.1 21.264,-34.113 55.784,-98.137 24.948,-46.272 63.086,-73.779 115.145,-88.569 v 0 c 49.426,-14.041 74.138,-21.062 77.114,-24.892 4.72,-6.076 4.726,-12.041 0.02,-18.128 -2.967,-3.836 -25.56,-10.31 -70.748,-23.259 L 535.927,517.037 c -10.341,-2.963 -15.512,-4.445 -19.256,-3.57 -5.206,1.216 -9.351,5.146 -10.843,10.28 -1.072,3.693 0.132,8.935 2.541,19.419 z"
       fill="#595d7a"
       id="path21" />
    <path
       d="m 508.369,539.13 45.621,198.555 v 0 c 13.891,60.458 20.836,90.687 24.14,93.775 5.773,5.397 9.978,5.965 16.976,2.294 4.005,-2.101 21.264,-34.113 55.784,-98.137 24.948,-46.272 63.086,-73.779 115.145,-88.569 v 0 c 49.426,-14.042 74.138,-21.062 77.114,-24.892 4.72,-6.076 4.726,-12.041 0.02,-18.128 -2.967,-3.836 -25.56,-10.31 -70.748,-23.259 L 535.927,513.002 c -10.341,-2.964 -15.512,-4.445 -19.256,-3.57 -5.206,1.216 -9.351,5.146 -10.843,10.28 -1.072,3.693 0.132,8.934 2.541,19.418 z"
       fill="#595d7a"
       id="path22" />
    <path
       d="M 508.369,535.095 553.99,733.65 v 0 c 13.891,60.458 20.836,90.687 24.14,93.775 5.773,5.397 9.978,5.965 16.976,2.294 4.005,-2.101 21.264,-34.113 55.784,-98.137 24.948,-46.272 63.086,-73.779 115.145,-88.569 v 0 c 49.426,-14.042 74.138,-21.062 77.114,-24.892 4.72,-6.076 4.726,-12.041 0.02,-18.128 -2.967,-3.836 -25.56,-10.31 -70.748,-23.259 L 535.927,508.967 c -10.341,-2.964 -15.512,-4.445 -19.256,-3.57 -5.206,1.216 -9.351,5.146 -10.843,10.28 -1.072,3.692 0.132,8.934 2.541,19.418 z"
       fill="#595d7a"
       id="path23" />
    <path
       d="m 508.369,531.06 45.621,198.554 v 10e-4 c 13.891,60.458 20.836,90.687 24.14,93.775 5.773,5.397 9.978,5.965 16.976,2.294 4.005,-2.101 21.264,-34.113 55.784,-98.137 24.948,-46.272 63.086,-73.779 115.145,-88.569 v 0 c 49.426,-14.042 74.138,-21.063 77.114,-24.892 4.72,-6.076 4.726,-12.041 0.02,-18.128 -2.967,-3.836 -25.56,-10.311 -70.748,-23.259 L 535.927,504.931 c -10.341,-2.963 -15.512,-4.444 -19.256,-3.57 -5.206,1.217 -9.351,5.147 -10.843,10.281 -1.072,3.692 0.132,8.934 2.541,19.418 z"
       fill="#595d7a"
       id="path24" />
    <path
       d="m 508.369,527.025 45.621,198.554 v 0 c 13.891,60.459 20.836,90.688 24.14,93.776 5.773,5.397 9.978,5.965 16.976,2.294 4.005,-2.101 21.264,-34.113 55.784,-98.137 24.948,-46.272 63.086,-73.779 115.145,-88.569 v 0 c 49.426,-14.042 74.138,-21.063 77.114,-24.892 4.72,-6.076 4.726,-12.042 0.02,-18.128 -2.967,-3.836 -25.56,-10.311 -70.748,-23.259 L 535.927,500.896 c -10.341,-2.963 -15.512,-4.444 -19.256,-3.57 -5.206,1.216 -9.351,5.147 -10.843,10.281 -1.072,3.692 0.132,8.934 2.541,19.418 z"
       fill="#595d7a"
       id="path25" />
    <path
       d="m 508.369,522.99 45.621,198.554 v 0 c 13.891,60.458 20.836,90.688 24.14,93.775 5.773,5.397 9.978,5.966 16.976,2.295 4.005,-2.101 21.264,-34.113 55.784,-98.137 24.948,-46.272 63.086,-73.779 115.145,-88.569 v 0 c 49.426,-14.042 74.138,-21.063 77.114,-24.893 4.72,-6.075 4.726,-12.041 0.02,-18.127 -2.967,-3.837 -25.56,-10.311 -70.748,-23.259 L 535.927,496.861 c -10.341,-2.963 -15.512,-4.444 -19.256,-3.57 -5.206,1.216 -9.351,5.146 -10.843,10.28 -1.072,3.693 0.132,8.935 2.541,19.419 z"
       fill="#595d7a"
       id="path26" />
    <path
       d="m 508.369,518.955 45.621,198.554 v 0 c 13.891,60.458 20.836,90.687 24.14,93.775 5.773,5.397 9.978,5.966 16.976,2.295 4.005,-2.101 21.264,-34.113 55.784,-98.137 24.948,-46.273 63.086,-73.779 115.145,-88.569 v 0 c 49.426,-14.042 74.138,-21.063 77.114,-24.893 4.72,-6.075 4.726,-12.041 0.02,-18.127 -2.967,-3.837 -25.56,-10.311 -70.748,-23.259 L 535.927,492.826 c -10.341,-2.963 -15.512,-4.445 -19.256,-3.57 -5.206,1.216 -9.351,5.146 -10.843,10.28 -1.072,3.693 0.132,8.935 2.541,19.419 z"
       fill="#595d7a"
       id="path27" />
    <path
       d="m 508.369,513.575 45.621,198.554 v 0 c 13.891,60.458 20.836,90.687 24.14,93.775 5.773,5.397 9.978,5.966 16.976,2.294 4.005,-2.1 21.264,-34.112 55.784,-98.136 24.948,-46.273 63.086,-73.779 115.145,-88.569 v 0 c 49.426,-14.042 74.138,-21.063 77.114,-24.893 4.72,-6.075 4.726,-12.041 0.02,-18.127 -2.967,-3.837 -25.56,-10.311 -70.748,-23.259 L 535.927,487.446 c -10.341,-2.963 -15.512,-4.445 -19.256,-3.57 -5.206,1.216 -9.351,5.146 -10.843,10.28 -1.072,3.693 0.132,8.935 2.541,19.419 z"
       fill="#ffffff"
       id="path28" />
  </g>
</svg>
